# xmcd CD database file
#
# Track frame offsets:
#	150
#	39746
#	73906
#	115890
#	147977
#	175226
#	207725
#
# Disc length: 3142 seconds
#
# Revision: 0
# Processed by: cddbd v1.5.2PL0 Copyright (c) Steve Scherf et al.
# Submitted via: CDex 1.70beta2
#
DISCID=710c4407
DTITLE=Louis Stewart and the Frank Harrison Trio - You've Changed
DYEAR=2007
DGENRE=Jazz
TTITLE0=You've Changed
TTITLE1=How Deep Is The Ocean
TTITLE2=LoveLetters
TTITLE3=Soul Eyes
TTITLE4=What's True
TTITLE5=Like Someone In Love
TTITLE6=The Peacocks
EXTD=YEAR: 2007
EXTT0=
EXTT1=
EXTT2=
EXTT3=
EXTT4=
EXTT5=
EXTT6=
PLAYORDER=
